<svg xmlns="http://www.w3.org/2000/svg" xmlns:xlink="http://www.w3.org/1999/xlink" width="1080" zoomAndPan="magnify" viewBox="0 0 810 809.999993" height="1080" preserveAspectRatio="xMidYMid meet" version="1.0"><defs><clipPath id="2a5872c0db"><path d="M 0 114.917969 L 810 114.917969 L 810 695.417969 L 0 695.417969 Z M 0 114.917969 " clip-rule="nonzero"/></clipPath></defs><g clip-path="url(#2a5872c0db)"><path fill="#000000" d="M 405 114.917969 C 400.34375 114.917969 221.902344 198.414062 200.695312 208.417969 C 166.210938 224.464844 133.453125 241.023438 98.800781 255.859375 L 0.0078125 302.609375 L 72.074219 336.59375 L 72.074219 419.746094 C 66.386719 433.203125 53.972656 430.269531 54.316406 457.179688 C 54.488281 474.949219 61.730469 485.472656 74.488281 490.992188 L 50.695312 695.246094 L 109.488281 695.417969 L 85.695312 490.992188 C 98.28125 483.746094 105.523438 476.675781 105.867188 457.179688 C 106.214844 430.441406 93.972656 433.375 88.109375 419.746094 L 88.109375 344.1875 L 130.179688 364.199219 C 155.523438 375.929688 151.730469 373.683594 180.347656 366.957031 C 342.414062 328.488281 470 328.660156 631.890625 367.476562 C 659.820312 374.203125 657.753906 374.546875 681.71875 363.335938 L 809.992188 302.4375 Z M 77.765625 653.324219 C 84.835938 653.324219 90.351562 658.847656 90.351562 665.917969 C 90.351562 672.820312 84.835938 678.511719 77.765625 678.511719 C 70.867188 678.511719 65.179688 672.820312 65.179688 665.917969 C 65.179688 658.847656 70.867188 653.324219 77.765625 653.324219 Z M 77.765625 653.324219 " fill-opacity="1" fill-rule="evenodd"/></g><path fill="#000000" d="M 164.832031 582.941406 C 310.175781 533.601562 499.996094 533.085938 645.855469 583.113281 L 645.511719 380.585938 L 530.34375 359.539062 C 488.445312 353.847656 448.792969 350.570312 405 350.570312 C 360.691406 350.570312 320.175781 353.847656 277.417969 359.710938 L 164.660156 380.757812 Z M 164.832031 582.941406 " fill-opacity="1" fill-rule="evenodd"/></svg>