<svg xmlns="http://www.w3.org/2000/svg" xmlns:xlink="http://www.w3.org/1999/xlink" width="1080" zoomAndPan="magnify" viewBox="0 0 810 809.999993" height="1080" preserveAspectRatio="xMidYMid meet" version="1.0"><defs><clipPath id="21baa643f3"><path d="M 0 114.917969 L 810 114.917969 L 810 695.417969 L 0 695.417969 Z M 0 114.917969 " clip-rule="nonzero"/></clipPath></defs><g clip-path="url(#21baa643f3)"><path fill="#ffffff" d="M 405 114.917969 C 400.34375 114.917969 221.902344 198.367188 200.695312 208.363281 C 166.210938 224.398438 133.453125 240.949219 98.800781 255.777344 L 0.0078125 302.5 L 72.074219 336.464844 L 72.074219 419.566406 C 66.386719 433.015625 53.972656 430.085938 54.316406 456.980469 C 54.488281 474.738281 61.730469 485.253906 74.488281 490.773438 L 50.695312 694.90625 L 109.488281 695.078125 L 85.695312 490.773438 C 98.28125 483.53125 105.523438 476.460938 105.867188 456.980469 C 106.214844 430.257812 93.972656 433.1875 88.109375 419.566406 L 88.109375 344.050781 L 130.179688 364.050781 C 155.523438 375.773438 151.730469 373.535156 180.347656 366.808594 C 342.414062 328.363281 470 328.535156 631.890625 367.328125 C 659.820312 374.050781 657.753906 374.394531 681.71875 363.1875 L 809.992188 302.328125 Z M 77.765625 653.011719 C 84.835938 653.011719 90.351562 658.527344 90.351562 665.597656 C 90.351562 672.492188 84.835938 678.183594 77.765625 678.183594 C 70.867188 678.183594 65.179688 672.492188 65.179688 665.597656 C 65.179688 658.527344 70.867188 653.011719 77.765625 653.011719 Z M 77.765625 653.011719 " fill-opacity="1" fill-rule="evenodd"/></g><path fill="#ffffff" d="M 164.832031 582.667969 C 310.175781 533.359375 499.996094 532.839844 645.855469 582.839844 L 645.511719 380.429688 L 530.34375 359.394531 C 488.445312 353.707031 448.792969 350.429688 405 350.429688 C 360.691406 350.429688 320.175781 353.707031 277.417969 359.570312 L 164.660156 380.601562 Z M 164.832031 582.667969 " fill-opacity="1" fill-rule="evenodd"/></svg>