<svg xmlns="http://www.w3.org/2000/svg" xmlns:xlink="http://www.w3.org/1999/xlink" width="1080" zoomAndPan="magnify" viewBox="0 0 810 809.999993" height="1080" preserveAspectRatio="xMidYMid meet" version="1.0"><defs><clipPath id="3a50d8d305"><path d="M 8.5 8.5 L 801.5 8.5 L 801.5 801.5 L 8.5 801.5 Z M 8.5 8.5 " clip-rule="nonzero"/></clipPath><clipPath id="f83a6dd882"><path d="M 405 8.5 C 186.019531 8.5 8.5 186.019531 8.5 405 C 8.5 623.980469 186.019531 801.5 405 801.5 C 623.980469 801.5 801.5 623.980469 801.5 405 C 801.5 186.019531 623.980469 8.5 405 8.5 Z M 405 8.5 " clip-rule="nonzero"/></clipPath><clipPath id="b771899b8e"><path d="M 217.550781 186.71875 L 592.550781 186.71875 L 592.550781 623.21875 L 217.550781 623.21875 Z M 217.550781 186.71875 " clip-rule="nonzero"/></clipPath><clipPath id="f097b1b917"><path d="M 544.195312 298.769531 L 616.195312 298.769531 L 616.195312 394 L 544.195312 394 Z M 544.195312 298.769531 " clip-rule="nonzero"/></clipPath><clipPath id="14fcc40c14"><path d="M 576 298.769531 L 606 298.769531 L 606 442.769531 L 576 442.769531 Z M 576 298.769531 " clip-rule="nonzero"/></clipPath></defs><g clip-path="url(#3a50d8d305)"><g clip-path="url(#f83a6dd882)"><path fill="#1f1f1f" d="M 8.5 8.5 L 801.5 8.5 L 801.5 801.5 L 8.5 801.5 Z M 8.5 8.5 " fill-opacity="1" fill-rule="nonzero"/></g></g><g clip-path="url(#b771899b8e)"><path fill="#d9d9d9" d="M 354.527344 623.109375 C 279.011719 623.039062 217.558594 561.554688 217.546875 486.046875 L 217.542969 478.375 L 329.457031 478.375 L 329.457031 486.546875 C 329.675781 500.121094 340.785156 511.101562 354.417969 511.101562 L 442.285156 511.101562 C 455.933594 511.101562 467.054688 498.816406 467.242188 485.21875 L 467.242188 484.761719 C 467.207031 471.074219 456.011719 458.628906 442.285156 458.628906 L 441.46875 458.613281 L 354.527344 458.539062 C 279.011719 458.460938 217.558594 399.53125 217.546875 324.027344 L 217.542969 315.078125 L 329.457031 315.078125 L 329.457031 324.53125 C 329.675781 338.101562 340.785156 349.085938 354.417969 349.085938 L 439.28125 349.085938 L 442.230469 349 C 517.695312 349.101562 579.121094 409.296875 579.15625 484.753906 C 579.15625 521.4375 564.894531 557.148438 538.992188 583.039062 C 513.09375 608.933594 478.664062 623.191406 442.046875 623.191406 C 442.042969 623.191406 354.527344 623.109375 354.527344 623.109375 Z M 332.929688 298.769531 L 257.585938 186.878906 L 517.960938 186.878906 L 592.457031 298.769531 Z M 332.929688 298.769531 " fill-opacity="1" fill-rule="nonzero"/></g><g clip-path="url(#f097b1b917)"><path fill="#090a0a" d="M 706.234375 247.796875 L 868.148438 274.441406 L 868.148438 282.726562 L 706.234375 309.371094 L 706.15625 309.371094 L 544.238281 282.734375 L 544.238281 274.449219 L 706.15625 247.804688 Z M 707.417969 316.589844 L 706.828125 316.6875 L 705.558594 316.6875 L 704.96875 316.589844 L 628.054688 303.929688 L 628.054688 381.027344 L 628.292969 381.027344 C 628.511719 381.378906 628.871094 381.636719 629.296875 381.722656 C 637.957031 383.425781 689.5 393.429688 707.976562 393.363281 C 725.609375 393.304688 774.6875 383.4375 783.097656 381.722656 C 783.523438 381.636719 783.878906 381.371094 784.101562 381.023438 L 784.335938 381.023438 L 784.335938 303.929688 Z M 707.417969 316.589844 " fill-opacity="1" fill-rule="nonzero"/></g><g clip-path="url(#14fcc40c14)"><path fill="#dda210" d="M 596.855469 345.390625 C 599.4375 343.558594 601.136719 340.550781 601.136719 337.136719 C 601.136719 332.242188 597.652344 328.160156 593.023438 327.234375 L 593.023438 298.171875 L 589.023438 297.511719 L 589.023438 327.234375 C 584.394531 328.160156 580.917969 332.242188 580.917969 337.136719 C 580.917969 340.558594 582.621094 343.578125 585.226562 345.410156 C 574.90625 365.480469 576.394531 439.289062 576.394531 439.289062 C 577.339844 441.148438 583.617188 442.578125 591.0625 442.578125 C 598.503906 442.578125 604.640625 441.140625 605.585938 439.289062 L 605.652344 439.175781 L 605.664062 438.453125 C 605.808594 430.335938 606.589844 364.199219 596.855469 345.390625 Z M 596.855469 345.390625 " fill-opacity="1" fill-rule="nonzero"/></g></svg>